PathFileType	4	(X/Y/Z)	RBDS021\RBDS021runT45.trc
DataRate	CameraRate	NumFrames	NumMarkers	Units	OrigDataRate	OrigDataStartFrame	OrigNumFrames
150.000000	150.000000	4	33	mm	150.000000	3937	4500
Frame#	Time	L.ASIS			L.Heel.Bottom			L.Heel.Lateral			L.Heel.Top			L.Iliac.Crest			L.MT1			L.MT5			L.PSIS			L.Shank.Bottom.Lateral			L.Shank.Bottom.Medial			L.Shank.Top.Lateral			L.Shank.Top.Medial			L.Thigh.Bottom.Lateral			L.Thigh.Bottom.Medial			L.Thigh.Top.Lateral			L.Thigh.Top.Medial			R.ASIS			R.ASY			R.Heel.Bottom			R.Heel.Lateral			R.Heel.Top			R.Iliac.Crest			R.MT1			R.MT5			R.PSIS			R.Shank.Bottom.Lateral			R.Shank.Bottom.Medial			R.Shank.Top.Lateral			R.Shank.Top.Medial			R.Thigh.Bottom.Lateral			R.Thigh.Bottom.Medial			R.Thigh.Top.Lateral			R.Thigh.Top.Medial			
		X1	Y1	Z1	X2	Y2	Z2	X3	Y3	Z3	X4	Y4	Z4	X5	Y5	Z5	X6	Y6	Z6	X7	Y7	Z7	X8	Y8	Z8	X9	Y9	Z9	X10	Y10	Z10	X11	Y11	Z11	X12	Y12	Z12	X13	Y13	Z13	X14	Y14	Z14	X15	Y15	Z15	X16	Y16	Z16	X17	Y17	Z17	X18	Y18	Z18	X19	Y19	Z19	X20	Y20	Z20	X21	Y21	Z21	X22	Y22	Z22	X23	Y23	Z23	X24	Y24	Z24	X25	Y25	Z25	X26	Y26	Z26	X27	Y27	Z27	X28	Y28	Z28	X29	Y29	Z29	X30	Y30	Z30	X31	Y31	Z31	X32	Y32	Z32	X33	Y33	Z33	

3938	26.24666666666667	2179.225334602897	981.8057385743298	945.4739927427336	2340.58362884185	79.52814425574742	1043.797056040434	2361.649848890912	92.85395254352078	991.7816170608041	2341.24476593885	125.2930062603346	1031.326194923935	2101.96557296453	1075.045589765721	903.0047177923248	2552.825032510748	132.9518530475616	1051.121009191741	2515.255349670581	91.81610555803195	949.1442686856725	2007.010168543549	1034.679355236873	1022.715271106076	2374.809075471134	227.2124597140036	953.0504134667409	2338.759188328342	227.2544425294123	995.4322986945189	2350.729082312587	300.9766385671051	932.7533632133216	2315.13236848178	301.7164673217068	973.4201866175298	2253.047379942072	659.2496626146439	893.0255789951206	2200.961688899602	631.1751054156052	931.7030154915103	2188.606701531088	746.4467761360099	871.9170918612614	2138.202124689682	719.4246162302869	908.5243717842613	2192.041022814205	969.2171306170715	1155.700846191087	1541.06971816711	217.6860734181905	1135.984284299019	1465.528240765908	366.7719870642092	1049.478337249024	1467.245051866027	355.8103643836433	1104.277085085371	1505.251674398144	372.9649219302462	1069.344786905868	2173.836533244265	1049.975182373427	1192.033637551359	1532.295350342269	166.363133672749	1084.805977453455	1475.194558532135	207.2745000112751	1170.460992069593	2020.775264497714	1042.595577609462	1100.913944769553	1570.610429334277	387.9925783702555	1150.994041535441	1566.611109945419	407.495007988893	1103.74275624723	1626.587300822734	448.7506409936901	1169.3136089687	1615.35066682497	469.044763286719	1121.466684987339	1936.430174875953	688.1279425773272	1212.168690310855	1884.459440959672	725.1255756100115	1176.566648576675	1987.19110721925	783.5582545046896	1231.056396306037	1939.606027162523	817.7721789529235	1194.579878423181	
3939	26.25333333333333	2177.68640184066	980.4817915262581	944.1484027549209	2351.882765606722	76.06433486408646	1046.638319101591	2372.662007890608	88.26555464603729	994.3202607995867	2351.403727901629	121.422384122142	1032.890566715962	2101.040838693062	1072.505496365563	902.6096858837226	2562.823332877203	134.0822716091518	1052.56571960309	2526.171971939128	88.99980477562151	951.8408910726064	2007.066557772075	1033.381272650409	1023.364812043094	2380.750489437028	222.8690299288804	953.9697749379019	2345.076957066192	221.8787388006149	996.7322435946212	2353.505627764452	295.6484166636028	933.6037548068902	2318.24046009719	295.4148119605624	974.632483171026	2247.541208815386	654.0647841429447	892.077100741638	2195.659436392312	627.6104376678576	932.3526386282276	2184.478848317143	742.3523787614273	870.8309472486491	2134.317421340535	716.861359387142	908.885007140629	2193.886863091145	969.3534392705567	1154.29061713088	1528.331627247718	234.1533005159283	1133.361559151948	1461.596013461711	385.7584257823532	1045.125676220288	1461.777605683544	374.9654237959206	1100.071812415179	1500.970553879985	390.1184495628086	1065.506320625477	2173.685505842201	1052.080251101614	1191.622411898811	1518.36904844009	183.1012120248764	1082.499345756121	1461.706431943403	227.0181153163155	1167.223422301453	2021.458939702288	1041.927951340269	1101.631622481453	1566.593058278042	401.7546270805063	1148.658777696341	1564.116411840154	421.8923643374124	1101.536859992025	1625.801160756849	459.0271873203392	1167.960137849716	1616.29570882097	480.3373006161939	1120.19965635984	1942.614716850034	685.1322830488435	1214.788032536503	1888.718106775658	721.6934064399832	1181.398530051994	1992.405235758904	781.0401014403807	1233.155517157059	1942.720780969007	814.9290460859343	1199.065691503023	
3940	26.26	2176.091966564106	978.9682820965274	942.7238369495055	2358.438616435153	73.30178514095412	1050.336794987457	2378.724973969377	84.03859782979299	997.6013537966154	2357.255069989336	118.1516755806056	1035.183191139927	2100.028173554991	1069.608310641187	902.1235539291143	2568.430717703278	133.3358770238584	1053.502971441085	2531.65651942457	84.88152596490309	954.3647332866946	2007.051022392804	1031.735047933237	1024.160370195088	2383.036143144573	218.3627028049698	955.2889035478102	2348.013684072931	216.7457287451622	998.6270853575792	2353.37595093642	290.3532323152385	934.9652395827675	2318.721298272681	289.5315076086505	976.5502345941893	2242.310589732882	649.256434714024	891.2165990570938	2190.499402145636	624.2665865216071	932.6948639640412	2180.662684176397	738.6028836612562	869.7949452396842	2130.633103175778	714.4699493712415	908.8819149743342	2195.658485061189	969.2502358026205	1152.914866964075	1517.264183772058	250.6769782569588	1130.581669910361	1460.08907131567	405.0097175481155	1041.261845336739	1458.762190812208	394.2512577811744	1096.30007943516	1499.073503141485	407.2736337126549	1062.17431496042	2173.334988919565	1053.551100983043	1191.394577567581	1505.824019336883	200.2471894344203	1079.858647307944	1450.009226349546	247.0916458466403	1163.840088407433	2022.043745776784	1040.497240087779	1102.523156471227	1564.61355995997	415.2428456866043	1146.567932289565	1563.7647078405	435.8449993584533	1099.531420367013	1626.993484487455	468.7520661158854	1166.812859524191	1619.348827278438	490.9076071676865	1119.102412097138	1949.29153673673	681.0258394213358	1217.410531809897	1893.563346192259	716.7060000462251	1185.724868370145	1997.580049855597	777.6975989911748	1234.955280737971	1945.910094199195	810.819180628135	1202.771140701033	
3941	26.26666666666667	2174.56489556811	977.274388237788	941.2901601652638	2360.170590122993	70.89958952869988	1054.885030123286	2379.7535764827	79.92638777973279	1001.641558237366	2358.70830827604	115.1887578707082	1038.272944762686	2099.012860163981	1066.475729361908	901.6111556367665	2569.650157728978	130.4968472082807	1054.092635372587	2531.682272915316	79.40998104447117	956.7584082345277	2007.015874968617	1029.733734912339	1025.121994916744	2381.659113666357	213.4963757005615	957.0584077354293	2347.518503630429	211.69723140892	1001.130333157504	2350.385917122213	284.9407709912557	936.8140347580198	2316.580419532343	283.9534611576888	979.1147212740898	2237.40599317914	644.7821465162008	890.4929566369217	2185.522229472128	621.0727167383149	932.7641368073306	2177.175030921073	735.1326721812904	868.8973936489294	2127.14813186287	712.1652146740668	908.6197832867201	2197.343779105325	968.8960586770365	1151.663173542348	1508.233634501437	267.1704323216975	1127.894782765132	1461.236043725299	424.2322135453778	1037.995409865754	1458.480852249917	413.4642694775774	1093.076621845665	1499.806239416727	424.1835814950208	1059.434834296342	2172.894774983532	1054.312730400543	1191.385852350252	1494.980810640992	217.6314559356293	1077.194237703606	1440.530340327066	267.4050356582096	1160.570908218185	2022.604845965853	1038.329849084182	1103.58787275496	1564.862279445819	428.3220234270023	1144.831219843243	1565.703906571243	449.1746882151344	1097.833446271525	1630.267440253664	477.8497145309241	1165.947931424731	1624.561687790618	500.6327921622222	1118.250464187965	1956.287041228927	675.9581588553182	1219.917814102427	1898.974230502155	710.3419733069259	1189.267038392398	2002.59892373016	773.6301342101094	1236.391126913074	1949.207899710005	805.5702844238245	1205.476264344278	
